<svg width="1026" height="180" viewBox="0 0 1026 180" fill="none" xmlns="http://www.w3.org/2000/svg">
<rect width="1026" height="180" fill="#878787"/>
<path d="M288.455 84.3636L281.227 86.4091C280.773 85.2045 280.102 84.0341 279.216 82.8977C278.352 81.7386 277.17 80.7841 275.67 80.0341C274.17 79.2841 272.25 78.9091 269.909 78.9091C266.705 78.9091 264.034 79.6477 261.898 81.125C259.784 82.5795 258.727 84.4318 258.727 86.6818C258.727 88.6818 259.455 90.2614 260.909 91.4205C262.364 92.5795 264.636 93.5455 267.727 94.3182L275.5 96.2273C280.182 97.3636 283.67 99.1023 285.966 101.443C288.261 103.761 289.409 106.75 289.409 110.409C289.409 113.409 288.545 116.091 286.818 118.455C285.114 120.818 282.727 122.682 279.659 124.045C276.591 125.409 273.023 126.091 268.955 126.091C263.614 126.091 259.193 124.932 255.693 122.614C252.193 120.295 249.977 116.909 249.045 112.455L256.682 110.545C257.409 113.364 258.784 115.477 260.807 116.886C262.852 118.295 265.523 119 268.818 119C272.568 119 275.545 118.205 277.75 116.614C279.977 115 281.091 113.068 281.091 110.818C281.091 109 280.455 107.477 279.182 106.25C277.909 105 275.955 104.068 273.318 103.455L264.591 101.409C259.795 100.273 256.273 98.5114 254.023 96.125C251.795 93.7159 250.682 90.7045 250.682 87.0909C250.682 84.1364 251.511 81.5227 253.17 79.25C254.852 76.9773 257.136 75.1932 260.023 73.8977C262.932 72.6023 266.227 71.9545 269.909 71.9545C275.091 71.9545 279.159 73.0909 282.114 75.3636C285.091 77.6364 287.205 80.6364 288.455 84.3636ZM323.474 126.091C318.429 126.091 314.077 124.977 310.418 122.75C306.781 120.5 303.974 117.364 301.997 113.341C300.043 109.295 299.065 104.591 299.065 99.2273C299.065 93.8636 300.043 89.1364 301.997 85.0455C303.974 80.9318 306.724 77.7273 310.247 75.4318C313.793 73.1136 317.929 71.9545 322.656 71.9545C325.384 71.9545 328.077 72.4091 330.736 73.3182C333.395 74.2273 335.815 75.7045 337.997 77.75C340.179 79.7727 341.918 82.4545 343.213 85.7955C344.509 89.1364 345.156 93.25 345.156 98.1364V101.545H304.793V94.5909H336.974C336.974 91.6364 336.384 89 335.202 86.6818C334.043 84.3636 332.384 82.5341 330.224 81.1932C328.088 79.8523 325.565 79.1818 322.656 79.1818C319.452 79.1818 316.679 79.9773 314.338 81.5682C312.02 83.1364 310.236 85.1818 308.986 87.7045C307.736 90.2273 307.111 92.9318 307.111 95.8182V100.455C307.111 104.409 307.793 107.761 309.156 110.511C310.543 113.239 312.463 115.318 314.918 116.75C317.372 118.159 320.224 118.864 323.474 118.864C325.588 118.864 327.497 118.568 329.202 117.977C330.929 117.364 332.418 116.455 333.668 115.25C334.918 114.023 335.884 112.5 336.565 110.682L344.338 112.864C343.52 115.5 342.145 117.818 340.213 119.818C338.281 121.795 335.895 123.341 333.054 124.455C330.213 125.545 327.02 126.091 323.474 126.091ZM378.668 126.091C373.759 126.091 369.531 124.932 365.986 122.614C362.44 120.295 359.713 117.102 357.804 113.034C355.895 108.966 354.94 104.318 354.94 99.0909C354.94 93.7727 355.918 89.0795 357.872 85.0114C359.849 80.9205 362.599 77.7273 366.122 75.4318C369.668 73.1136 373.804 71.9545 378.531 71.9545C382.213 71.9545 385.531 72.6364 388.486 74C391.44 75.3636 393.861 77.2727 395.747 79.7273C397.634 82.1818 398.804 85.0455 399.259 88.3182H391.213C390.599 85.9318 389.236 83.8182 387.122 81.9773C385.031 80.1136 382.213 79.1818 378.668 79.1818C375.531 79.1818 372.781 80 370.418 81.6364C368.077 83.25 366.247 85.5341 364.929 88.4886C363.634 91.4205 362.986 94.8636 362.986 98.8182C362.986 102.864 363.622 106.386 364.895 109.386C366.19 112.386 368.009 114.716 370.349 116.375C372.713 118.034 375.486 118.864 378.668 118.864C380.759 118.864 382.656 118.5 384.361 117.773C386.065 117.045 387.509 116 388.69 114.636C389.872 113.273 390.713 111.636 391.213 109.727H399.259C398.804 112.818 397.679 115.602 395.884 118.08C394.111 120.534 391.759 122.489 388.827 123.943C385.918 125.375 382.531 126.091 378.668 126.091ZM411.02 125V72.6364H418.793V80.5455H419.338C420.293 77.9545 422.02 75.8523 424.52 74.2386C427.02 72.625 429.838 71.8182 432.974 71.8182C433.565 71.8182 434.304 71.8295 435.19 71.8523C436.077 71.875 436.747 71.9091 437.202 71.9545V80.1364C436.929 80.0682 436.304 79.9659 435.327 79.8295C434.372 79.6705 433.361 79.5909 432.293 79.5909C429.747 79.5909 427.474 80.125 425.474 81.1932C423.497 82.2386 421.929 83.6932 420.77 85.5568C419.634 87.3977 419.065 89.5 419.065 91.8636V125H411.02ZM467.099 126.091C462.054 126.091 457.702 124.977 454.043 122.75C450.406 120.5 447.599 117.364 445.622 113.341C443.668 109.295 442.69 104.591 442.69 99.2273C442.69 93.8636 443.668 89.1364 445.622 85.0455C447.599 80.9318 450.349 77.7273 453.872 75.4318C457.418 73.1136 461.554 71.9545 466.281 71.9545C469.009 71.9545 471.702 72.4091 474.361 73.3182C477.02 74.2273 479.44 75.7045 481.622 77.75C483.804 79.7727 485.543 82.4545 486.838 85.7955C488.134 89.1364 488.781 93.25 488.781 98.1364V101.545H448.418V94.5909H480.599C480.599 91.6364 480.009 89 478.827 86.6818C477.668 84.3636 476.009 82.5341 473.849 81.1932C471.713 79.8523 469.19 79.1818 466.281 79.1818C463.077 79.1818 460.304 79.9773 457.963 81.5682C455.645 83.1364 453.861 85.1818 452.611 87.7045C451.361 90.2273 450.736 92.9318 450.736 95.8182V100.455C450.736 104.409 451.418 107.761 452.781 110.511C454.168 113.239 456.088 115.318 458.543 116.75C460.997 118.159 463.849 118.864 467.099 118.864C469.213 118.864 471.122 118.568 472.827 117.977C474.554 117.364 476.043 116.455 477.293 115.25C478.543 114.023 479.509 112.5 480.19 110.682L487.963 112.864C487.145 115.5 485.77 117.818 483.838 119.818C481.906 121.795 479.52 123.341 476.679 124.455C473.838 125.545 470.645 126.091 467.099 126.091ZM523.793 72.6364V79.4545H496.656V72.6364H523.793ZM504.565 60.0909H512.611V110C512.611 112.273 512.94 113.977 513.599 115.114C514.281 116.227 515.145 116.977 516.19 117.364C517.259 117.727 518.384 117.909 519.565 117.909C520.452 117.909 521.179 117.864 521.747 117.773C522.315 117.659 522.77 117.568 523.111 117.5L524.747 124.727C524.202 124.932 523.44 125.136 522.463 125.341C521.486 125.568 520.247 125.682 518.747 125.682C516.474 125.682 514.247 125.193 512.065 124.216C509.906 123.239 508.111 121.75 506.679 119.75C505.27 117.75 504.565 115.227 504.565 112.182V60.0909ZM584.168 126.091C579.259 126.091 575.031 124.932 571.486 122.614C567.94 120.295 565.213 117.102 563.304 113.034C561.395 108.966 560.44 104.318 560.44 99.0909C560.44 93.7727 561.418 89.0795 563.372 85.0114C565.349 80.9205 568.099 77.7273 571.622 75.4318C575.168 73.1136 579.304 71.9545 584.031 71.9545C587.713 71.9545 591.031 72.6364 593.986 74C596.94 75.3636 599.361 77.2727 601.247 79.7273C603.134 82.1818 604.304 85.0455 604.759 88.3182H596.713C596.099 85.9318 594.736 83.8182 592.622 81.9773C590.531 80.1136 587.713 79.1818 584.168 79.1818C581.031 79.1818 578.281 80 575.918 81.6364C573.577 83.25 571.747 85.5341 570.429 88.4886C569.134 91.4205 568.486 94.8636 568.486 98.8182C568.486 102.864 569.122 106.386 570.395 109.386C571.69 112.386 573.509 114.716 575.849 116.375C578.213 118.034 580.986 118.864 584.168 118.864C586.259 118.864 588.156 118.5 589.861 117.773C591.565 117.045 593.009 116 594.19 114.636C595.372 113.273 596.213 111.636 596.713 109.727H604.759C604.304 112.818 603.179 115.602 601.384 118.08C599.611 120.534 597.259 122.489 594.327 123.943C591.418 125.375 588.031 126.091 584.168 126.091ZM637.793 126.091C633.065 126.091 628.918 124.966 625.349 122.716C621.804 120.466 619.031 117.318 617.031 113.273C615.054 109.227 614.065 104.5 614.065 99.0909C614.065 93.6364 615.054 88.875 617.031 84.8068C619.031 80.7386 621.804 77.5795 625.349 75.3295C628.918 73.0795 633.065 71.9545 637.793 71.9545C642.52 71.9545 646.656 73.0795 650.202 75.3295C653.77 77.5795 656.543 80.7386 658.52 84.8068C660.52 88.875 661.52 93.6364 661.52 99.0909C661.52 104.5 660.52 109.227 658.52 113.273C656.543 117.318 653.77 120.466 650.202 122.716C646.656 124.966 642.52 126.091 637.793 126.091ZM637.793 118.864C641.384 118.864 644.338 117.943 646.656 116.102C648.974 114.261 650.69 111.841 651.804 108.841C652.918 105.841 653.474 102.591 653.474 99.0909C653.474 95.5909 652.918 92.3295 651.804 89.3068C650.69 86.2841 648.974 83.8409 646.656 81.9773C644.338 80.1136 641.384 79.1818 637.793 79.1818C634.202 79.1818 631.247 80.1136 628.929 81.9773C626.611 83.8409 624.895 86.2841 623.781 89.3068C622.668 92.3295 622.111 95.5909 622.111 99.0909C622.111 102.591 622.668 105.841 623.781 108.841C624.895 111.841 626.611 114.261 628.929 116.102C631.247 117.943 634.202 118.864 637.793 118.864ZM693.574 126.091C689.21 126.091 685.358 124.989 682.017 122.784C678.676 120.557 676.063 117.42 674.176 113.375C672.29 109.307 671.347 104.5 671.347 98.9545C671.347 93.4545 672.29 88.6818 674.176 84.6364C676.063 80.5909 678.688 77.4659 682.051 75.2614C685.415 73.0568 689.301 71.9545 693.71 71.9545C697.119 71.9545 699.813 72.5227 701.79 73.6591C703.79 74.7727 705.313 76.0455 706.358 77.4773C707.426 78.8864 708.256 80.0455 708.847 80.9545H709.528V55.1818H717.574V125H709.801V116.955H708.847C708.256 117.909 707.415 119.114 706.324 120.568C705.233 122 703.676 123.284 701.653 124.42C699.631 125.534 696.938 126.091 693.574 126.091ZM694.665 118.864C697.892 118.864 700.619 118.023 702.847 116.341C705.074 114.636 706.767 112.284 707.926 109.284C709.085 106.261 709.665 102.773 709.665 98.8182C709.665 94.9091 709.097 91.4886 707.96 88.5568C706.824 85.6023 705.142 83.3068 702.915 81.6705C700.688 80.0114 697.938 79.1818 694.665 79.1818C691.256 79.1818 688.415 80.0568 686.142 81.8068C683.892 83.5341 682.199 85.8864 681.062 88.8636C679.949 91.8182 679.392 95.1364 679.392 98.8182C679.392 102.545 679.96 105.932 681.097 108.977C682.256 112 683.96 114.409 686.21 116.205C688.483 117.977 691.301 118.864 694.665 118.864ZM755.381 126.091C750.335 126.091 745.983 124.977 742.324 122.75C738.688 120.5 735.881 117.364 733.903 113.341C731.949 109.295 730.972 104.591 730.972 99.2273C730.972 93.8636 731.949 89.1364 733.903 85.0455C735.881 80.9318 738.631 77.7273 742.153 75.4318C745.699 73.1136 749.835 71.9545 754.562 71.9545C757.29 71.9545 759.983 72.4091 762.642 73.3182C765.301 74.2273 767.722 75.7045 769.903 77.75C772.085 79.7727 773.824 82.4545 775.119 85.7955C776.415 89.1364 777.062 93.25 777.062 98.1364V101.545H736.699V94.5909H768.881C768.881 91.6364 768.29 89 767.108 86.6818C765.949 84.3636 764.29 82.5341 762.131 81.1932C759.994 79.8523 757.472 79.1818 754.562 79.1818C751.358 79.1818 748.585 79.9773 746.244 81.5682C743.926 83.1364 742.142 85.1818 740.892 87.7045C739.642 90.2273 739.017 92.9318 739.017 95.8182V100.455C739.017 104.409 739.699 107.761 741.062 110.511C742.449 113.239 744.369 115.318 746.824 116.75C749.278 118.159 752.131 118.864 755.381 118.864C757.494 118.864 759.403 118.568 761.108 117.977C762.835 117.364 764.324 116.455 765.574 115.25C766.824 114.023 767.79 112.5 768.472 110.682L776.244 112.864C775.426 115.5 774.051 117.818 772.119 119.818C770.188 121.795 767.801 123.341 764.96 124.455C762.119 125.545 758.926 126.091 755.381 126.091Z" fill="white" fill-opacity="0.33"/>
</svg>
