<svg width="232" height="70" viewBox="0 0 232 70" fill="none" xmlns="http://www.w3.org/2000/svg">
<rect width="232" height="70" rx="15" fill="#D9D9D9"/>
<path d="M61.6818 51V24.8182H65.5682V28.7727H65.8409C66.3182 27.4773 67.1818 26.4261 68.4318 25.6193C69.6818 24.8125 71.0909 24.4091 72.6591 24.4091C72.9545 24.4091 73.3239 24.4148 73.767 24.4261C74.2102 24.4375 74.5455 24.4545 74.7727 24.4773V28.5682C74.6364 28.5341 74.3239 28.483 73.8352 28.4148C73.358 28.3352 72.8523 28.2955 72.3182 28.2955C71.0455 28.2955 69.9091 28.5625 68.9091 29.0966C67.9205 29.6193 67.1364 30.3466 66.5568 31.2784C65.9886 32.1989 65.7045 33.25 65.7045 34.4318V51H61.6818ZM89.7216 51.5455C87.1989 51.5455 85.0227 50.9886 83.1932 49.875C81.375 48.75 79.9716 47.1818 78.983 45.1705C78.0057 43.1477 77.517 40.7955 77.517 38.1136C77.517 35.4318 78.0057 33.0682 78.983 31.0227C79.9716 28.9659 81.3466 27.3636 83.108 26.2159C84.8807 25.0568 86.9489 24.4773 89.3125 24.4773C90.6761 24.4773 92.0227 24.7045 93.3523 25.1591C94.6818 25.6136 95.892 26.3523 96.983 27.375C98.0739 28.3864 98.9432 29.7273 99.5909 31.3977C100.239 33.0682 100.562 35.125 100.562 37.5682V39.2727H80.3807V35.7955H96.4716C96.4716 34.3182 96.1761 33 95.5852 31.8409C95.0057 30.6818 94.1761 29.767 93.0966 29.0966C92.0284 28.4261 90.767 28.0909 89.3125 28.0909C87.7102 28.0909 86.3239 28.4886 85.1534 29.2841C83.9943 30.0682 83.1023 31.0909 82.4773 32.3523C81.8523 33.6136 81.5398 34.9659 81.5398 36.4091V38.7273C81.5398 40.7045 81.8807 42.3807 82.5625 43.7557C83.2557 45.1193 84.2159 46.1591 85.4432 46.875C86.6705 47.5795 88.0966 47.9318 89.7216 47.9318C90.7784 47.9318 91.733 47.7841 92.5852 47.4886C93.4489 47.1818 94.1932 46.7273 94.8182 46.125C95.4432 45.5114 95.9261 44.75 96.267 43.8409L100.153 44.9318C99.7443 46.25 99.0568 47.4091 98.0909 48.4091C97.125 49.3977 95.9318 50.1705 94.5114 50.7273C93.0909 51.2727 91.4943 51.5455 89.7216 51.5455ZM125.227 30.6818L121.614 31.7045C121.386 31.1023 121.051 30.517 120.608 29.9489C120.176 29.3693 119.585 28.892 118.835 28.517C118.085 28.142 117.125 27.9545 115.955 27.9545C114.352 27.9545 113.017 28.3239 111.949 29.0625C110.892 29.7898 110.364 30.7159 110.364 31.8409C110.364 32.8409 110.727 33.6307 111.455 34.2102C112.182 34.7898 113.318 35.2727 114.864 35.6591L118.75 36.6136C121.091 37.1818 122.835 38.0511 123.983 39.2216C125.131 40.3807 125.705 41.875 125.705 43.7045C125.705 45.2045 125.273 46.5455 124.409 47.7273C123.557 48.9091 122.364 49.8409 120.83 50.5227C119.295 51.2045 117.511 51.5455 115.477 51.5455C112.807 51.5455 110.597 50.9659 108.847 49.8068C107.097 48.6477 105.989 46.9545 105.523 44.7273L109.341 43.7727C109.705 45.1818 110.392 46.2386 111.403 46.9432C112.426 47.6477 113.761 48 115.409 48C117.284 48 118.773 47.6023 119.875 46.8068C120.989 46 121.545 45.0341 121.545 43.9091C121.545 43 121.227 42.2386 120.591 41.625C119.955 41 118.977 40.5341 117.659 40.2273L113.295 39.2045C110.898 38.6364 109.136 37.7557 108.011 36.5625C106.898 35.358 106.341 33.8523 106.341 32.0455C106.341 30.5682 106.756 29.2614 107.585 28.125C108.426 26.9886 109.568 26.0966 111.011 25.4489C112.466 24.8011 114.114 24.4773 115.955 24.4773C118.545 24.4773 120.58 25.0455 122.057 26.1818C123.545 27.3182 124.602 28.8182 125.227 30.6818ZM142.737 51.5455C140.214 51.5455 138.038 50.9886 136.209 49.875C134.391 48.75 132.987 47.1818 131.999 45.1705C131.021 43.1477 130.533 40.7955 130.533 38.1136C130.533 35.4318 131.021 33.0682 131.999 31.0227C132.987 28.9659 134.362 27.3636 136.124 26.2159C137.896 25.0568 139.964 24.4773 142.328 24.4773C143.692 24.4773 145.038 24.7045 146.368 25.1591C147.697 25.6136 148.908 26.3523 149.999 27.375C151.089 28.3864 151.959 29.7273 152.607 31.3977C153.254 33.0682 153.578 35.125 153.578 37.5682V39.2727H133.396V35.7955H149.487C149.487 34.3182 149.192 33 148.601 31.8409C148.021 30.6818 147.192 29.767 146.112 29.0966C145.044 28.4261 143.783 28.0909 142.328 28.0909C140.726 28.0909 139.339 28.4886 138.169 29.2841C137.01 30.0682 136.118 31.0909 135.493 32.3523C134.868 33.6136 134.555 34.9659 134.555 36.4091V38.7273C134.555 40.7045 134.896 42.3807 135.578 43.7557C136.271 45.1193 137.232 46.1591 138.459 46.875C139.686 47.5795 141.112 47.9318 142.737 47.9318C143.794 47.9318 144.749 47.7841 145.601 47.4886C146.464 47.1818 147.209 46.7273 147.834 46.125C148.459 45.5114 148.942 44.75 149.283 43.8409L153.169 44.9318C152.76 46.25 152.072 47.4091 151.107 48.4091C150.141 49.3977 148.947 50.1705 147.527 50.7273C146.107 51.2727 144.51 51.5455 142.737 51.5455ZM171.084 24.8182V28.2273H157.516V24.8182H171.084ZM161.47 18.5455H165.493V43.5C165.493 44.6364 165.658 45.4886 165.987 46.0568C166.328 46.6136 166.76 46.9886 167.283 47.1818C167.817 47.3636 168.379 47.4545 168.97 47.4545C169.413 47.4545 169.777 47.4318 170.061 47.3864C170.345 47.3295 170.572 47.2841 170.743 47.25L171.561 50.8636C171.288 50.9659 170.908 51.0682 170.419 51.1705C169.93 51.2841 169.311 51.3409 168.561 51.3409C167.425 51.3409 166.311 51.0966 165.22 50.608C164.141 50.1193 163.243 49.375 162.527 48.375C161.822 47.375 161.47 46.1136 161.47 44.5909V18.5455Z" fill="black"/>
</svg>